HIERARCHY
ROOT Hips
{
  OFFSET 0.00 0.00 0.00
  CHANNELS 6 Xposition Yposition Zposition Zrotation Xrotation Yrotation
  JOINT LeftUpLeg
  {
    OFFSET 3.43 0.00 0.00
    CHANNELS 3 Zrotation Xrotation Yrotation
    JOINT LeftLowLeg
    {
      OFFSET 0.00 -18.47 0.00
      CHANNELS 3 Zrotation Xrotation Yrotation
      JOINT LeftFoot
      {
        OFFSET 0.00 -17.95 0.00
        CHANNELS 3 Zrotation Xrotation Yrotation
        End Site
        {
          OFFSET 0.00 -3.12 0.00
        }
      }
    }
  }
  JOINT RightUpLeg
  {
    OFFSET -3.43 0.00 0.00
    CHANNELS 3 Zrotation Xrotation Yrotation
    JOINT RightLowLeg
    {
      OFFSET 0.00 -18.47 0.00
      CHANNELS 3 Zrotation Xrotation Yrotation
      JOINT RightFoot
      {
        OFFSET 0.00 -17.95 0.00
        CHANNELS 3 Zrotation Xrotation Yrotation
        End Site
        {
          OFFSET 0.00 -3.12 0.00
        }
      }
    }
  }
  JOINT Chest
  {
    OFFSET 0.00 4.57 0.00
    CHANNELS 3 Zrotation Xrotation Yrotation
    JOINT LeftCollar
    {
      OFFSET 1.06 15.33 1.76
      CHANNELS 3 Zrotation Xrotation Yrotation
      JOINT LeftUpArm
      {
        OFFSET 5.81 0.00 0.00
        CHANNELS 3 Zrotation Xrotation Yrotation
        JOINT LeftLowArm
        {
          OFFSET 0.00 -12.08 0.00
          CHANNELS 3 Zrotation Xrotation Yrotation
          JOINT LeftHand
          {
            OFFSET 0.00 -9.82 0.00
            CHANNELS 3 Zrotation Xrotation Yrotation
            End Site
            {
              OFFSET 0.00 -7.37 0.00
            }
          }
        }
      }
    }
    JOINT RightCollar
    {
      OFFSET -1.06 15.33 1.76
      CHANNELS 3 Zrotation Xrotation Yrotation
      JOINT RightUpArm
      {
        OFFSET -5.81 0.00 0.00
        CHANNELS 3 Zrotation Xrotation Yrotation
        JOINT RightLowArm
        {
          OFFSET 0.00 -12.08 0.00
          CHANNELS 3 Zrotation Xrotation Yrotation
          JOINT RightHand
          {
            OFFSET 0.00 -9.82 0.00
            CHANNELS 3 Zrotation Xrotation Yrotation
            End Site
            {
              OFFSET 0.00 -7.37 0.00
            }
          }
        }
      }
    }
    JOINT Neck
    {
      OFFSET 0.00 17.62 0.00
      CHANNELS 3 Zrotation Xrotation Yrotation
      JOINT Head
      {
        OFFSET 0.00 5.19 0.00
        CHANNELS 3 Zrotation Xrotation Yrotation
        End Site
        {
          OFFSET 0.00 4.14 0.00
        }
      }
    }
  }
}
MOTION
Frames:	16
Frame Time:	0.03
-34.97 14.12 -50.62 -28.92 9.74 -145.76 -5.56 -45.06 5.11 179.84 38.50 -179.98 -5.67 -75.31 -0.19 10.41 -65.84 -6.90 -0.15 33.00 0.16 -7.67 28.44 5.16 12.26 43.16 -18.42 -19.43 -5.33 13.61 71.86 -49.84 -13.97 0.24 -32.10 0.38 -17.15 10.16 -6.21 -4.48 0.09 1.08 -43.62 10.07 1.21 -0.46 -63.64 -0.66 -30.30 21.60 10.94 -6.77 10.02 -21.00 -11.15 8.04 -16.82 
-34.76 14.34 -51.10 -30.79 7.87 -143.45 -3.03 -43.86 6.96 179.83 39.77 -179.97 -9.71 -73.81 -6.15 16.17 -65.10 -8.57 -0.18 43.57 0.20 3.34 21.53 -1.84 20.20 40.78 -28.53 -19.63 -5.20 13.27 60.79 -53.35 -16.55 0.24 -30.39 0.37 -13.20 10.53 -12.15 -11.06 0.06 2.59 -36.56 8.40 -1.51 -0.49 -65.55 -0.70 -36.67 16.15 14.24 -11.13 8.98 -19.80 -12.88 8.53 -15.39 
-34.65 14.89 -51.45 -30.30 3.49 -142.30 0.57 -45.30 11.36 179.83 42.03 -179.96 -8.25 -71.01 -7.85 21.54 -65.28 -9.59 -0.22 54.54 0.26 9.18 17.33 -0.90 25.62 38.18 -36.51 -20.04 -4.92 12.54 54.36 -55.92 -16.66 0.24 -30.72 0.37 -10.82 12.95 -15.38 -15.68 -0.18 2.58 -30.22 2.43 -4.03 -0.48 -65.06 -0.69 -41.13 8.88 16.71 -11.50 3.26 -19.26 -17.06 10.15 -12.18 
-34.61 15.75 -51.68 -28.03 -3.41 -142.40 4.97 -49.07 18.65 179.82 44.83 -179.95 -3.67 -66.52 -7.97 28.12 -64.79 -7.52 -0.28 63.02 0.33 6.93 15.32 5.90 28.49 36.36 -42.01 -21.07 -4.05 10.41 54.96 -59.25 -13.45 0.23 -28.57 0.36 -9.49 14.48 -15.23 -16.84 -0.44 0.47 -25.44 -8.31 -4.80 -0.43 -61.48 -0.63 -43.69 0.16 18.86 -7.66 -6.13 -18.58 -23.16 12.03 -7.30 
-34.66 16.86 -51.80 -24.87 -12.24 -143.57 10.12 -54.04 28.65 179.81 47.91 -179.94 0.87 -61.03 -9.98 34.70 -63.58 -2.88 -0.38 70.44 0.44 -4.30 4.03 16.83 29.42 35.69 -45.01 -22.08 -2.69 7.32 61.24 -66.15 -8.40 0.21 -17.09 0.31 -8.45 10.92 -11.48 -14.25 -0.81 -3.40 -22.11 -22.80 -3.06 -0.35 -54.13 -0.53 -44.51 -9.90 21.27 -0.46 -17.06 -16.80 -29.87 13.07 -1.69 
-34.82 18.22 -51.87 -21.65 -22.48 -146.08 14.04 -58.40 40.62 179.80 51.18 -179.92 0.67 -57.88 -16.65 36.10 -60.58 1.20 -0.52 75.65 0.58 -30.85 -14.21 25.34 28.99 36.04 -47.52 -22.59 -0.35 2.27 80.93 -68.43 5.97 0.20 -6.11 0.27 -7.09 6.81 -1.72 -9.61 -1.30 -6.47 -18.26 -39.96 1.88 -0.28 -43.20 -0.44 -43.92 -21.39 24.96 10.37 -27.42 -11.08 -36.25 12.51 3.78 
-35.03 19.73 -51.98 -19.14 -32.93 -149.93 20.61 -60.60 53.14 179.78 55.19 -179.89 -1.94 -54.88 -25.20 35.00 -53.82 5.22 -0.44 72.96 0.50 -53.34 -29.56 15.30 27.61 37.06 -49.58 -18.03 0.86 -0.71 95.88 -65.38 13.60 0.20 -0.71 0.25 -6.73 4.71 15.90 -4.82 -1.51 -6.77 -12.09 -57.03 10.60 -0.23 -29.93 -0.37 -43.70 -32.62 29.55 24.74 -33.90 -1.32 -41.79 10.06 8.32 
-35.27 21.25 -52.17 -17.89 -42.48 -154.94 29.48 -61.20 66.29 179.76 57.58 -179.88 -5.01 -48.06 -32.94 30.70 -49.51 8.18 -0.34 67.83 0.39 -56.54 -31.95 6.40 27.23 37.33 -49.90 -12.15 1.56 -3.29 102.51 -60.57 11.71 0.20 1.15 0.25 -7.18 4.23 38.05 -2.68 -1.26 -5.33 -3.38 -71.59 22.90 -0.21 -17.37 -0.32 -45.78 -40.48 32.32 36.82 -36.44 7.72 -46.26 6.17 11.47 
-35.52 22.78 -52.44 -18.34 -51.00 -161.49 41.94 -60.64 80.24 179.75 58.69 -179.87 -6.13 -31.35 -36.43 26.48 -46.86 10.34 -0.26 59.92 0.30 -58.06 -32.87 2.71 25.96 38.10 -47.45 -7.52 2.04 -5.72 107.30 -56.01 7.59 0.20 1.76 0.25 -8.23 5.01 59.36 -1.77 -0.79 -3.23 11.55 -82.60 42.16 -0.21 -8.94 -0.28 -49.75 -42.90 31.61 45.99 -36.69 14.15 -49.64 1.58 13.21 
-35.86 24.24 -52.73 -20.74 -58.37 -169.62 52.82 -59.78 88.51 179.72 62.71 -179.83 -4.53 -7.60 -32.35 23.14 -44.30 11.55 -0.19 48.05 0.22 -58.01 -34.26 2.42 21.35 36.43 -41.54 -5.54 2.49 -7.77 108.19 -53.25 2.60 0.20 1.95 0.24 -9.38 6.71 73.96 -2.12 -0.21 -0.65 26.37 -87.93 61.36 -0.20 -4.61 -0.27 -53.72 -41.04 28.60 49.34 -34.40 15.06 -51.80 -2.50 13.79 
-36.36 25.58 -52.95 -24.89 -64.75 -178.79 52.75 -61.40 83.25 179.60 71.47 -179.70 -2.57 4.39 -25.64 20.32 -41.19 11.73 -0.15 32.35 0.16 -56.54 -36.08 5.00 17.18 34.23 -35.09 -5.23 2.84 -9.07 110.71 -52.53 3.88 0.20 1.94 0.24 -9.71 8.96 80.40 -2.74 0.17 1.14 -146.37 -87.78 -107.64 -0.20 -2.59 -0.26 -55.74 -38.10 25.91 49.72 -33.38 14.44 -52.80 -5.15 13.74 
-37.20 26.72 -52.89 -31.35 -70.44 170.61 47.36 -65.53 70.73 179.43 76.99 -179.52 -2.41 4.63 -17.49 18.18 -38.56 11.00 -0.13 16.25 0.12 -50.51 -37.62 10.65 13.93 31.00 -28.80 -6.35 3.10 -9.49 114.95 -53.82 9.25 0.20 1.64 0.25 -9.44 11.76 81.15 -3.40 0.27 1.73 -136.12 -83.82 -94.33 -0.20 -2.07 -0.26 -54.96 -35.98 24.78 47.85 -33.73 12.78 -52.96 -6.31 13.57 
-38.31 27.74 -52.67 -41.63 -75.14 157.04 36.35 -69.32 52.14 178.82 83.76 -178.91 -1.46 3.60 -7.20 17.12 -39.12 9.69 -0.13 7.09 0.09 -41.38 -39.06 16.94 11.65 27.52 -23.10 -7.94 3.25 -9.34 120.72 -56.23 16.54 0.20 0.81 0.25 -8.99 15.14 79.17 -4.23 0.22 1.64 -130.05 -79.60 -85.79 -0.20 -1.90 -0.26 -52.86 -35.12 24.21 45.07 -35.30 10.80 -52.81 -6.28 13.70 
-39.39 28.97 -52.81 -56.50 -78.43 139.21 22.83 -70.68 31.57 2.15 86.58 -2.22 0.77 3.59 2.56 16.53 -42.15 7.41 -0.13 5.08 0.09 -32.26 -39.58 22.70 10.31 25.73 -17.96 -8.08 3.37 -9.67 126.79 -57.99 23.69 0.20 0.02 0.25 -8.03 18.32 76.76 -5.80 0.25 2.18 -127.55 -74.37 -81.38 -0.20 -0.38 -0.25 -52.33 -35.37 22.38 43.08 -38.41 9.75 -52.74 -5.69 14.03 
-40.29 30.60 -53.65 -74.49 -80.03 118.11 12.86 -68.66 14.81 0.40 71.53 -0.46 4.48 3.97 9.39 14.74 -47.80 2.90 -0.13 11.38 0.10 -21.55 -36.93 26.65 9.81 26.78 -13.05 -5.51 3.52 -11.21 131.51 -58.13 28.74 0.20 0.45 0.25 -6.48 20.00 75.49 -8.50 0.33 3.43 -126.02 -67.81 -78.55 -0.20 1.48 -0.25 -53.66 -35.71 19.49 42.70 -43.32 10.40 -53.16 -5.01 14.54 
-41.26 31.91 -54.46 -88.59 -79.82 100.67 10.63 -65.06 6.96 0.22 54.93 -0.26 10.35 2.28 12.53 6.99 -59.92 -6.57 -0.15 32.84 0.16 -9.16 -32.73 25.86 9.18 28.79 -8.15 -2.37 3.39 -12.29 135.22 -58.02 31.44 0.20 0.71 0.25 -5.90 21.08 76.27 -11.04 0.26 4.00 -124.80 -61.62 -76.69 -0.20 2.11 -0.24 -53.75 -35.96 17.53 42.54 -47.73 11.04 -54.04 -4.57 15.12 
